<svg xmlns="http://www.w3.org/2000/svg" xmlns:xlink="http://www.w3.org/1999/xlink" viewBox="0 0 145.27 214.15"><defs><style>.cls-1{fill:#fed1a4;}.cls-2{fill:#f7934f;}.cls-3{fill:#f89c5b;}.cls-4{fill:#eb1945;}.cls-5{fill:#ce1f33;}.cls-6{fill:none;}.cls-7{fill:#f5b978;}.cls-8{fill:#f09951;}.cls-9{fill:#f6a673;}.cls-10{fill:#e24;}.cls-11{fill:#df1e25;}.cls-12{fill:#cc1e37;}.cls-13{fill:#db1d3a;}.cls-14{fill:url(#radial-gradient);}.cls-15{fill:#f9a86f;}.cls-16{fill:#faaf7b;}.cls-17{fill:#f05479;}.cls-18{fill:url(#radial-gradient-2);}.cls-19{fill:url(#radial-gradient-3);}</style><radialGradient id="radial-gradient" cx="117.76" cy="127.84" r="7.45" gradientTransform="translate(-52.32) scale(1.06 1)" gradientUnits="userSpaceOnUse"><stop offset="0" stop-color="#fff"/><stop offset="1" stop-color="#abe1f8"/></radialGradient><radialGradient id="radial-gradient-2" cx="50.8" cy="81.57" r="8.68" gradientTransform="matrix(1, 0, 0, 1, 0, 0)" xlink:href="#radial-gradient"/><radialGradient id="radial-gradient-3" cx="2190.13" cy="81.57" r="8.68" gradientTransform="matrix(-1, 0, 0, 1, 2286.54, 0)" xlink:href="#radial-gradient"/></defs><title>资源 18</title><g id="图层_2" data-name="图层 2"><g id="Layer_1" data-name="Layer 1"><path class="cls-1" d="M36,170.41l3.7,23.13a76.42,76.42,0,0,0,9.64,3.64c-1.51-5.61-5.31-20-6.71-26.44A23.8,23.8,0,0,0,36,170.41Z"/><path class="cls-2" d="M63.34,179.48l-1.1,20a28,28,0,0,0,10.22-1.39l1.15-11.6A108.26,108.26,0,0,0,63.34,179.48Z"/><path class="cls-3" d="M42.65,170.74c1.4,6.46,5.2,20.83,6.71,26.44a50.91,50.91,0,0,0,12.88,2.3l1.1-20C57.42,175.89,49.76,172,42.65,170.74Z"/><path class="cls-4" d="M39.32,192,41,202.53s-7.65,5.88-4.6,9.41,34,1.77,34,1.77l1.7-17.21C61,200.38,47,195.41,39.32,192Z"/><polygon class="cls-1" points="56.42 186.94 53.67 186.94 51.42 174.77 57.31 175.24 56.42 186.94"/><polygon class="cls-5" points="57.87 192.4 52 191.8 48.55 196.58 50.97 201.96 56.83 202.56 60.28 197.78 57.87 192.4"/><path class="cls-1" d="M110.77,169.9,107.08,193a79.24,79.24,0,0,1-9.64,3.64c1.5-5.62,5.3-20,6.7-26.44A23.44,23.44,0,0,1,110.77,169.9Z"/><path class="cls-2" d="M83.45,179l1.1,20a28.21,28.21,0,0,1-10.21-1.39L73.19,186A109.92,109.92,0,0,1,83.45,179Z"/><path class="cls-3" d="M104.14,170.23c-1.4,6.46-5.2,20.82-6.7,26.44A51.51,51.51,0,0,1,84.55,199l-1.1-20C89.37,175.38,97,171.5,104.14,170.23Z"/><path class="cls-4" d="M107.47,191.44,105.78,202s7.66,5.88,4.6,9.41-33.95,1.77-33.95,1.77L74.73,196C85.8,199.86,99.83,194.9,107.47,191.44Z"/><polygon class="cls-1" points="90.37 186.43 93.13 186.43 95.37 174.26 89.49 174.73 90.37 186.43"/><polygon class="cls-5" points="88.93 191.89 94.79 191.29 98.24 196.07 95.83 201.45 89.96 202.04 86.51 197.26 88.93 191.89"/><path class="cls-6" d="M123.05,118l-1.4-.39"/><path class="cls-7" d="M118.3,122.06,114,121a48.93,48.93,0,0,0,1.41-4.84c2,.44,4.13,1,6.26,1.53l-.42.56Z"/><path class="cls-8" d="M122.93,118.69q.06-.34.12-.66c1,.28,1.93.58,2.9.89l-1.1,15.16-6.51,3.38c-.9-.62-1.81-1.26-2.72-1.91C119.69,133,122,123.81,122.93,118.69Z"/><path class="cls-9" d="M114,121l4.32,1.11,2.93-3.86.42-.56,1.4.39q-.06.31-.12.66c-1,5.12-3.24,14.34-7.31,16.86-2.58-1.82-5.18-3.69-7.61-5.46C110.77,128.35,112.69,124.61,114,121Z"/><path class="cls-10" d="M124.06,134l-6.51,3.38c4.58,3.19,8.9,6.05,11.9,7.73a10.06,10.06,0,0,0,3.73,1.57c4-.22,12.72-11.87,12-15.49a17.15,17.15,0,0,0-3-3.49c-4.17-3.86-10.53-6.74-17.11-8.87Z"/><path class="cls-10" d="M94.46,120.57s1.83,1.39,4.7,3.53h0c2.19,1.63,5,3.71,8,5.94,4-2.54,6.29-9.39,7.38-14-3.33-.73-6.43-1.28-9-1.68-4.27-.67-7.07-.92-7.07-.92Z"/><path class="cls-11" d="M99.46,124.67l-.3-.57-.58-.28A60.84,60.84,0,0,1,105.1,114l1,.8a61,61,0,0,0-6.37,9.6l-.09.19Z"/><path class="cls-11" d="M129.84,145.65l-.79-1c6.12-4.75,10.54-12.8,12.64-17.18l1.17.56C140.71,132.49,136.18,140.74,129.84,145.65Z"/><path class="cls-6" d="M23.62,117.64l-1.4.39"/><path class="cls-7" d="M27,122.06,31.28,121a48.72,48.72,0,0,1-1.4-4.84c-2,.44-4.13,1-6.26,1.53l.42.56Z"/><path class="cls-8" d="M22.34,118.69q-.06-.34-.12-.66c-1,.28-1.94.58-2.9.89l1.09,15.16,6.52,3.38c.9-.62,1.81-1.26,2.72-1.91C25.57,133,23.31,123.81,22.34,118.69Z"/><path class="cls-3" d="M31.28,121,27,122.06,24,118.2l-.42-.56-1.4.39q.06.31.12.66c1,5.12,3.23,14.34,7.31,16.86,2.58-1.82,5.17-3.69,7.61-5.46C34.5,128.35,32.57,124.61,31.28,121Z"/><path class="cls-10" d="M21.2,134l6.52,3.38c-4.59,3.19-8.91,6.05-11.9,7.73a10.08,10.08,0,0,1-3.74,1.57c-4-.22-12.71-11.87-12-15.49a17.42,17.42,0,0,1,3-3.49c4.17-3.86,10.53-6.74,17.12-8.87Z"/><path class="cls-10" d="M50.8,120.57S49,122,46.11,124.1h0c-2.19,1.63-5,3.71-8.05,5.94-4-2.54-6.29-9.39-7.38-14,3.33-.73,6.42-1.28,9-1.68,4.26-.67,7.07-.92,7.07-.92Z"/><path class="cls-11" d="M45.81,124.67l-.2-.1-.09-.19a61.7,61.7,0,0,0-6.37-9.6l1-.8a61.5,61.5,0,0,1,6.52,9.84l-.59.28Z"/><path class="cls-11" d="M15.42,145.65c-6.33-4.91-10.87-13.16-13-17.64l1.17-.56c2.09,4.37,6.52,12.43,12.64,17.18Z"/><path class="cls-4" d="M73.55,179.63c0,5-.49,6.29-3.63,4.52A80.46,80.46,0,0,0,41.57,175a6.85,6.85,0,0,1-6-6.2,87.07,87.07,0,0,1-.27-9.21c4.86-.19,12.94.51,16.51,6.6C56.68,174.44,68.13,178.24,73.55,179.63Z"/><path class="cls-12" d="M72.89,134.85,60.16,122.76l12.3-.32c.11,2.52.23,5.32.35,8.31v0Z"/><path class="cls-10" d="M111.29,155.54c-.18-2.85-.49-5.6-.91-8.27q-.41-2.55-.93-5-1-4.54-2.3-8.63c-.48-1.52-1-3-1.51-4.4-.64-1.74-1.32-3.41-2-5-.62-1.43-1.25-2.79-1.87-4.07-3.43,2.4-16.62,11.83-19.14,17.13a29.48,29.48,0,0,0-9,2.15c0,.8,0,1.6-.08,2.4l-.06,2.2-.26.07c0-.58,0-1.17-.05-1.75,0-.81,0-1.61-.07-2.4a29.28,29.28,0,0,0-9-2.16c-2.53-5.29-15.72-14.73-19.15-17.13-.62,1.29-1.25,2.65-1.87,4.08s-1.36,3.24-2,5c-.52,1.41-1,2.88-1.51,4.39-.87,2.72-1.64,5.6-2.29,8.64-.36,1.62-.67,3.27-.94,5-.42,2.66-.73,5.42-.91,8.27-.07,1.17-.13,2.35-.15,3.55,4.86-.19,12.94.51,16.51,6.6,4.82,8.23,16.27,12,21.69,13.42V179c5.52-1.45,16.65-5.26,21.38-13.34,3.57-6.09,11.65-6.79,16.52-6.6C111.42,157.9,111.37,156.71,111.29,155.54ZM73.4,149.07c0,.09,0,.19,0,.29v-.3Z"/><path class="cls-13" d="M73.58,168l0,2.24a12.38,12.38,0,0,1-2.07.17,9.69,9.69,0,0,1-6.93-2.72c-3.29-3.19-5-9.06-5.11-17.45a76,76,0,0,1,.33-7.7c.12-1.36.26-2.42.34-3a6.19,6.19,0,0,0-.94-1.35c-2.5-3-9-8.47-16-13.35.62-1.43,1.25-2.79,1.87-4.08,3.43,2.4,16.62,11.84,19.15,17.13a4.69,4.69,0,0,1,.34.94l.1.42-.07.42c-.11.72-.23,1.62-.33,2.64-.18,1.69-.32,3.72-.36,5.88,0,1.72,0,3.51.13,5.28.34,4.53,1.35,8.85,3.63,11.06,1.38,1.34,3.19,1.77,5.54,1.32Z"/><path class="cls-13" d="M55.37,144.07l-4.28,1.05L51,145c-.17-.43-1-1.89-4.63-5.2-1.82-1.66-4.13-3.58-6.77-5.62.48-1.51,1-3,1.51-4.39,3.26,2.47,6,4.73,8.23,6.75a32.52,32.52,0,0,1,4.8,5.12A6.84,6.84,0,0,1,55.37,144.07Z"/><path class="cls-13" d="M73.55,179.63c-5.42-1.39-16.87-5.19-21.69-13.42-3.57-6.09-11.65-6.79-16.51-6.6,0-1.2.08-2.38.15-3.55,5.68-.18,15,.8,19.41,8.37,3.9,6.66,13.42,10.1,18.62,11.53C73.54,177.35,73.55,178.57,73.55,179.63Z"/><path class="cls-4" d="M73.25,179.12c0,5,.48,6.28,3.62,4.51a80.8,80.8,0,0,1,28.35-9.13,6.84,6.84,0,0,0,6-6.19,87.29,87.29,0,0,0,.28-9.21c-4.87-.19-13,.51-16.52,6.6C90.11,173.93,78.66,177.73,73.25,179.12Z"/><path class="cls-12" d="M73.91,134.33l12.72-12.08-12.3-.32c-.11,2.51-.23,5.32-.35,8.3v0Z"/><path class="cls-13" d="M73.22,167.45l0,2.24a12.21,12.21,0,0,0,2.06.18,9.7,9.7,0,0,0,6.93-2.73c3.29-3.18,5-9,5.11-17.45A73,73,0,0,0,87,142c-.12-1.37-.26-2.42-.34-3a6.57,6.57,0,0,1,.94-1.35c2.5-3,9-8.48,16-13.36-.62-1.43-1.25-2.79-1.87-4.07-3.43,2.4-16.62,11.83-19.14,17.13a4.54,4.54,0,0,0-.35.94l-.1.42.07.42c.12.72.23,1.62.34,2.64.17,1.69.31,3.72.35,5.88,0,1.71,0,3.51-.13,5.27-.34,4.54-1.35,8.86-3.63,11.07a5.87,5.87,0,0,1-5.54,1.32Z"/><path class="cls-13" d="M91.42,143.55l4.29,1a.28.28,0,0,1,.05-.12c.16-.43,1-1.9,4.62-5.21,1.82-1.65,4.13-3.57,6.77-5.61-.48-1.52-1-3-1.51-4.4-3.26,2.48-6,4.74-8.22,6.75a33.18,33.18,0,0,0-4.81,5.12A7.1,7.1,0,0,0,91.42,143.55Z"/><path class="cls-13" d="M73.25,179.12c5.41-1.39,16.86-5.19,21.68-13.42,3.57-6.09,11.65-6.79,16.52-6.6,0-1.2-.08-2.39-.16-3.56-5.68-.18-15,.81-19.4,8.37C88,170.57,78.46,174,73.26,175.44,73.25,176.84,73.24,178.06,73.25,179.12Z"/><path class="cls-10" d="M92.77,105.53l-17.85,4.1s0,.33,0,1l-3,.2,0-.65L54,106a81.34,81.34,0,0,0-9,14.67c3.43,2.4,16.62,11.84,19.15,17.13a29.28,29.28,0,0,1,9,2.16h0l.53-.95c0,.15,0,.29,0,.43a29.48,29.48,0,0,1,9-2.15c2.52-5.3,15.71-14.73,19.14-17.13A80.2,80.2,0,0,0,92.77,105.53Z"/><path class="cls-13" d="M109.45,142.29c-2.37,2.19-5.76,4.49-9.22,4.15a8.53,8.53,0,0,1-4.47-2,17.06,17.06,0,0,1-3.15-3.35l-.52-.72a7,7,0,0,0-4.47-2.78,16.4,16.4,0,0,0-4.42-.34l-.58,0A28.94,28.94,0,0,0,74.94,139h0l-3.33.43a29.26,29.26,0,0,0-7.43-1.57l-.59,0a16.43,16.43,0,0,0-4.42.33,7,7,0,0,0-4.47,2.79c-.17.24-.34.49-.52.72A17.55,17.55,0,0,1,51,145a8.57,8.57,0,0,1-4.47,2c-3.47.34-6.86-2-9.22-4.14l-.94,5a15.61,15.61,0,0,0,9.42,3.61,11.46,11.46,0,0,0,1.17-.06c4.2-.42,8-3.08,11.35-7.93l0,0a2.48,2.48,0,0,1,1.39-.85,12.71,12.71,0,0,1,4.45-.25,24.16,24.16,0,0,1,8,2.17l2.28-.58,0,.07a24.28,24.28,0,0,1,8-2.17A12.65,12.65,0,0,1,87,142a2.39,2.39,0,0,1,1.39.85l0,0c3.34,4.85,7.16,7.52,11.35,7.94a11.51,11.51,0,0,0,1.18.06,15.56,15.56,0,0,0,9.41-3.62Z"/><path class="cls-13" d="M83.67,147.32s-.28.24-.74.58c-1.43,1.07-4.74,3.15-7.87,2.41l-.17-.28-.53.06a.76.76,0,0,1-.16-.06l0,.08-2,.21,0,.13c-3.23,1-6.74-1.2-8.23-2.31-.45-.34-.72-.57-.73-.58l-3,3.26a19.18,19.18,0,0,0,3.83,2.6,14.13,14.13,0,0,0,6.38,1.71,9.84,9.84,0,0,0,3.13-.5v-.1l.18,0a9.7,9.7,0,0,0,2.74.39,14.13,14.13,0,0,0,6.38-1.71,19.37,19.37,0,0,0,3.83-2.59Z"/><polygon class="cls-14" points="62.24 123.82 82.31 123.27 72.27 132.42 62.24 123.82"/><path class="cls-15" d="M40.12,75.52,24.9,85.14A43.29,43.29,0,0,1,24,76V68.69l7.29-6.07Z"/><path class="cls-10" d="M61.47,116.38l-1.28,3.14A44.25,44.25,0,0,1,24.9,85.14c8.31,4.83,23.22,13.8,28.72,28.25Z"/><path class="cls-1" d="M74.25,79.94v26.53L66.49,106c-2.42-5.15-8.41-13.89-11.65-18.47l6.65-8.49A85.27,85.27,0,0,0,74.25,79.94Z"/><path class="cls-4" d="M74.25,106.47v13.78h-6.1a43.65,43.65,0,0,1-8-.73l1.28-3.14L65.71,106l.78,0Z"/><path class="cls-16" d="M74.25,74.52v5.42a85.27,85.27,0,0,1-12.76-.88c-10.27-1.3-21.38-3.53-21.38-3.53L31.24,62.62l.05,0V39l5.84-3.32C36.93,47.47,40,75.74,74.25,74.52Z"/><path class="cls-10" d="M74.25,0V7.73c-6.58.48-31.44,3.57-36.78,22.86a42.94,42.94,0,0,0-.34,5.06L31.29,39V62.58l-.05,0L24,68.7V44.21A44.33,44.33,0,0,1,68.15,0Z"/><path class="cls-17" d="M74.25,20.33c-4.24.32-15.66,1.45-18.69,4.3l7.94,28.9S68,59,74.25,59.15v5.19L62,60.13,49.1,28.85l-12,6.8a42.94,42.94,0,0,1,.34-5.06C42.81,11.3,67.67,8.21,74.25,7.73Z"/><path class="cls-10" d="M74.25,20.33V59.15C68,59,63.5,53.53,63.5,53.53l-7.94-28.9C58.59,21.78,70,20.65,74.25,20.33Z"/><path class="cls-1" d="M74.25,64.34V74.52C40,75.74,36.93,47.47,37.13,35.65l12-6.8L62,60.13Z"/><path class="cls-3" d="M66.49,106l-.78,0-4.24,10.41-7.85-3C48.12,98.94,33.21,90,24.9,85.14l15.21-9.61L54.78,87.62l.06-.07C58.08,92.13,64.07,100.87,66.49,106Z"/><path class="cls-18" d="M61.49,79.06l-6.65,8.49-.06.07L40.11,75.53S51.22,77.76,61.49,79.06Z"/><line class="cls-6" x1="61.96" y1="78.47" x2="61.49" y2="79.06"/><path class="cls-15" d="M107.09,75.52l15.22,9.62a43.46,43.46,0,0,0,1-9.11V68.69L116,62.61Z"/><path class="cls-10" d="M85.74,116.37,87,119.52a44.39,44.39,0,0,0,35.29-34.38C114,90,99.09,98.93,93.59,113.39Z"/><path class="cls-1" d="M73,79.93v26.53l7.76-.45c2.42-5.14,8.41-13.89,11.65-18.47l-6.65-8.49A84,84,0,0,1,73,79.93Z"/><path class="cls-4" d="M73,106.46v13.78h6.1a44.55,44.55,0,0,0,8-.72l-1.28-3.15L81.5,106l-.78,0Z"/><path class="cls-16" d="M73,74.51v5.42a84,84,0,0,0,12.76-.88c10.27-1.3,21.38-3.53,21.38-3.53L116,62.61l0,0V39l-5.84-3.32C110.28,47.46,107.22,75.74,73,74.51Z"/><path class="cls-10" d="M73,0V7.73c6.58.48,31.44,3.56,36.78,22.85a43.27,43.27,0,0,1,.34,5.07L115.92,39v23.6l0,0,7.29,6.08V44.21A44.33,44.33,0,0,0,79.06,0Z"/><path class="cls-17" d="M73,20.32c4.24.33,15.66,1.45,18.69,4.31l-7.94,28.9S79.22,59,73,59.15v5.19l12.3-4.22L98.11,28.85l12,6.8a43.27,43.27,0,0,0-.34-5.07C104.4,11.29,79.54,8.21,73,7.73Z"/><path class="cls-10" d="M73,20.32V59.15c6.26-.2,10.75-5.62,10.75-5.62l7.94-28.9C88.62,21.77,77.2,20.65,73,20.32Z"/><path class="cls-1" d="M73,64.34V74.51c34.26,1.23,37.32-27.05,37.12-38.86l-12-6.8L85.26,60.12Z"/><path class="cls-3" d="M80.72,106l.78,0,4.24,10.4,7.85-3C99.09,98.93,114,90,122.31,85.14L107.1,75.52,92.43,87.62l-.06-.08C89.13,92.12,83.14,100.87,80.72,106Z"/><path class="cls-19" d="M85.72,79.05l6.65,8.49.06.08,14.67-12.1S96,77.75,85.72,79.05Z"/><line class="cls-6" x1="85.26" y1="78.46" x2="85.72" y2="79.05"/></g></g></svg>